<?xml version="1.0" standalone="no"?>
<!DOCTYPE svg PUBLIC "-//W3C//DTD SVG 20010904//EN"
 "http://www.w3.org/TR/2001/REC-SVG-20010904/DTD/svg10.dtd">
<svg version="1.0" xmlns="http://www.w3.org/2000/svg"
 width="1000.000000pt" height="1000.000000pt" viewBox="0 0 1000.000000 1000.000000"
 preserveAspectRatio="xMidYMid meet">

<g transform="translate(0.000000,1000.000000) scale(0.100000,-0.100000)"
fill="#000000" stroke="none">
<path d="M2180 7190 l0 -220 30 0 30 0 0 190 0 190 2960 0 2960 0 0 -670 0
-670 30 0 30 0 0 700 0 700 -3020 0 -3020 0 0 -220z"/>
<path d="M2085 6482 c-81 -28 -146 -71 -220 -146 -185 -187 -347 -521 -430
-891 -33 -145 -45 -376 -25 -477 15 -80 49 -146 94 -186 70 -61 155 -66 374
-23 217 44 302 54 405 49 104 -5 173 -30 241 -90 l39 -34 -110 -146 c-224
-296 -323 -494 -323 -642 0 -113 43 -161 138 -152 121 11 241 104 335 263 123
205 153 429 81 607 l-26 66 29 37 c16 21 78 101 139 178 60 76 157 208 216
293 106 153 107 154 122 130 42 -64 158 -88 235 -49 50 26 118 83 164 140 22
25 42 47 47 49 4 2 18 -47 30 -108 26 -125 37 -146 68 -136 28 9 33 30 23 101
-14 95 11 209 52 243 12 10 140 42 169 42 7 0 9 -18 5 -51 -4 -29 -2 -73 4
-98 33 -147 136 -90 249 138 17 34 34 61 36 58 10 -10 44 -152 44 -186 0 -21
-19 -69 -54 -135 -112 -207 -190 -440 -203 -598 -17 -221 76 -355 212 -304 54
21 99 70 136 151 55 117 64 171 64 390 0 114 -6 230 -13 270 -7 39 -19 106
-27 150 -16 92 -23 76 94 222 65 81 81 95 81 71 0 -24 61 -143 88 -171 51 -54
114 -71 176 -47 61 23 146 131 223 284 l20 39 6 -70 c10 -125 61 -203 131
-203 113 0 180 217 124 403 -7 23 -34 64 -64 96 -50 55 -52 57 -38 84 11 20
12 32 4 47 -32 61 -103 -17 -131 -145 -7 -33 -23 -71 -35 -84 -12 -13 -46 -69
-75 -125 -107 -206 -179 -281 -239 -251 -60 31 -104 164 -116 348 -8 120 -18
143 -57 133 -35 -8 -49 -57 -46 -156 l3 -79 -81 -99 c-116 -139 -106 -136
-132 -39 -23 88 -51 144 -77 154 -24 9 -48 -23 -90 -122 -57 -136 -119 -235
-147 -235 -18 0 2 140 33 231 42 125 91 198 149 220 19 8 29 4 57 -21 44 -38
54 -38 54 1 0 42 -14 64 -49 79 -83 34 -204 -68 -263 -220 -20 -52 -26 -60
-49 -60 -15 0 -69 -11 -120 -24 -81 -21 -96 -29 -124 -62 l-32 -37 -14 94
c-15 106 -34 138 -71 118 -20 -11 -21 -16 -15 -118 l7 -106 -53 -65 c-62 -76
-137 -136 -189 -150 -49 -14 -101 7 -122 49 -24 46 -20 67 19 91 74 46 135
145 135 219 0 51 -20 71 -71 71 -82 0 -175 -131 -186 -264 -5 -57 -11 -69 -86
-176 -103 -148 -260 -360 -354 -478 l-74 -93 -20 25 c-11 15 -40 37 -63 51
-142 83 -290 91 -589 32 -209 -41 -303 -46 -357 -19 -73 36 -107 153 -97 336
14 250 78 467 221 754 141 281 241 405 376 465 54 24 134 26 176 4 43 -22 98
-87 133 -154 65 -129 90 -262 100 -539 10 -250 24 -298 76 -260 19 14 20 27
19 258 0 188 -4 263 -18 331 -35 179 -98 310 -190 395 -88 80 -184 101 -291
64z m3186 -605 c23 -96 -7 -276 -44 -264 -26 8 -39 80 -33 187 3 58 8 123 12
144 l7 39 23 -28 c13 -16 28 -51 35 -78z m-1951 -213 c0 -9 -7 -31 -15 -48
-19 -39 -95 -116 -95 -96 1 39 77 160 101 160 5 0 9 -7 9 -16z m1025 -479 c26
-209 30 -346 11 -453 -24 -136 -76 -231 -139 -251 -101 -34 -144 72 -117 286
14 110 49 223 118 381 62 140 94 196 103 180 4 -7 14 -71 24 -143z m-1698
-755 c17 -242 -178 -570 -366 -612 -49 -11 -55 -10 -67 7 -31 42 -11 146 55
289 38 82 200 330 287 440 l47 60 19 -55 c11 -29 22 -88 25 -129z"/>
<path d="M4565 6380 c-26 -28 -26 -91 -1 -119 39 -43 106 -14 106 45 0 30 -42
88 -66 92 -11 2 -29 -7 -39 -18z"/>
<path d="M8906 5721 c-24 -26 -38 -184 -31 -336 20 -393 109 -772 200 -843 83
-65 131 5 186 272 29 141 39 172 39 120 1 -41 33 -107 65 -132 90 -71 185 44
185 223 0 104 -23 170 -77 225 -42 42 -45 47 -35 74 13 33 1 66 -24 66 -26 0
-63 -51 -80 -109 -9 -31 -24 -78 -35 -106 -17 -47 -40 -137 -103 -415 -25
-111 -54 -180 -76 -180 -15 0 -47 70 -70 151 -50 181 -80 470 -80 774 0 210
-4 235 -35 235 -7 0 -20 -9 -29 -19z m539 -557 c37 -74 30 -238 -12 -280 -16
-16 -18 -15 -31 16 -16 39 -19 125 -8 233 9 87 19 94 51 31z"/>
<path d="M5226 5395 c-129 -53 -214 -131 -323 -297 -141 -214 -253 -523 -294
-806 -15 -108 -7 -291 16 -359 21 -63 76 -130 122 -149 53 -23 165 -16 333 18
130 26 178 32 300 32 132 1 149 -1 187 -22 45 -23 113 -79 113 -91 0 -4 -39
-59 -87 -122 -163 -215 -274 -412 -303 -537 -14 -60 -7 -145 16 -179 31 -49
144 -48 229 2 56 33 146 130 194 213 54 90 100 233 108 330 6 85 -5 157 -39
239 l-21 52 28 38 c16 21 77 99 135 173 59 74 149 197 200 273 57 82 97 132
101 125 3 -7 11 -51 18 -98 22 -152 70 -318 166 -577 33 -91 41 -103 62 -103
31 0 30 31 -3 135 -18 56 -26 105 -27 161 l-2 82 48 42 c78 69 130 183 143
316 7 62 10 67 78 146 l71 83 7 -60 c9 -69 34 -109 70 -113 45 -5 74 33 108
146 17 56 33 102 35 102 3 0 13 -17 24 -39 25 -49 71 -87 121 -102 57 -17 108
1 164 56 50 51 56 53 56 25 0 -31 21 -69 42 -76 52 -16 113 46 183 185 20 41
40 70 45 65 5 -5 17 -48 27 -96 l17 -87 -61 -118 c-156 -298 -217 -561 -169
-724 39 -135 161 -161 254 -54 66 74 98 169 113 326 13 137 2 322 -30 483 -23
116 -26 105 73 229 l70 88 17 -52 c23 -69 50 -96 82 -82 30 14 48 51 92 198
36 117 53 160 61 153 2 -2 15 -44 29 -94 52 -178 135 -255 225 -209 31 16 58
50 101 129 l29 51 0 -36 c0 -91 51 -179 110 -194 41 -9 88 27 118 93 21 47 26
72 26 142 1 118 -17 174 -75 232 -44 44 -47 49 -37 76 16 41 4 64 -29 60 -34
-4 -67 -58 -84 -138 -7 -30 -20 -64 -30 -75 -10 -11 -31 -55 -48 -98 -60 -151
-98 -201 -142 -190 -29 8 -64 66 -90 148 -12 39 -31 97 -43 130 -20 55 -25 60
-51 60 -40 0 -61 -33 -115 -183 -28 -79 -47 -118 -52 -109 -5 6 -6 82 -2 168
6 142 5 156 -11 162 -38 15 -61 -33 -76 -160 -10 -84 -15 -102 -39 -128 -15
-16 -53 -63 -85 -102 -31 -40 -61 -73 -65 -73 -4 0 -10 14 -14 30 -14 73 -39
143 -60 167 -33 38 -59 25 -87 -45 -52 -133 -126 -262 -150 -262 -14 0 -11 87
6 157 31 133 114 263 166 263 12 0 35 -11 51 -25 34 -28 48 -25 48 11 0 36
-42 74 -81 74 -74 0 -149 -73 -210 -205 -17 -36 -35 -67 -40 -71 -5 -3 -21
-30 -35 -61 -32 -67 -98 -139 -138 -149 -60 -15 -105 32 -145 153 -23 69 -29
78 -52 81 -31 4 -38 -12 -89 -185 -18 -62 -37 -113 -42 -113 -13 0 -9 111 7
173 21 81 61 156 91 169 20 9 34 9 69 -4 35 -13 46 -14 54 -4 14 16 -10 51
-49 71 -90 46 -179 -22 -231 -176 -23 -68 -36 -88 -103 -161 -44 -47 -80 -78
-83 -71 -28 70 -86 108 -130 83 -60 -35 -84 -103 -107 -319 -8 -73 -17 -135
-19 -138 -6 -5 -33 117 -52 237 -8 52 -19 165 -25 250 -13 189 -15 200 -40
200 -36 0 -45 -37 -45 -180 0 -133 -1 -136 -30 -180 -78 -119 -371 -514 -435
-587 -31 -35 -32 -35 -46 -14 -21 29 -94 70 -167 93 -98 31 -217 26 -442 -17
-357 -69 -412 -41 -423 216 -9 243 54 489 205 787 107 210 178 313 265 380
123 94 227 96 310 4 102 -113 157 -321 158 -602 1 -148 11 -215 34 -238 16
-16 18 -16 37 7 17 21 19 40 19 210 0 285 -20 412 -90 556 -92 191 -237 265
-394 200z m3515 -419 c18 -64 15 -186 -6 -230 -21 -45 -36 -42 -53 10 -14 39
-11 187 4 262 6 31 7 32 25 16 11 -10 24 -36 30 -58z m-2172 -543 c18 -63 13
-78 -46 -158 -57 -77 -58 -77 -61 -46 -4 38 32 185 53 218 22 34 43 28 54 -14z
m1176 -211 c28 -241 13 -414 -44 -517 -72 -129 -179 -117 -197 21 -9 79 12
237 45 336 38 113 116 293 143 331 l22 31 8 -38 c4 -20 15 -94 23 -164z
m-1194 -60 c-23 -59 -61 -121 -85 -141 -14 -12 -16 -10 -16 15 1 33 18 66 75
146 45 63 55 55 26 -20z m-801 -578 c38 -123 17 -265 -61 -414 -73 -140 -206
-260 -291 -260 -69 0 -63 110 16 283 47 103 288 457 311 457 2 0 13 -30 25
-66z"/>
<path d="M8160 3280 l0 -650 -520 0 -520 0 0 -30 0 -30 550 0 550 0 0 680 0
680 -30 0 -30 0 0 -650z"/>
<path d="M2180 3020 l0 -450 760 0 760 0 0 30 0 30 -730 0 -730 0 0 420 0 420
-30 0 -30 0 0 -450z"/>
<path d="M4498 2673 c8 -3 12 -35 12 -108 0 -73 -4 -105 -12 -108 -7 -3 14 -6
47 -6 77 -1 120 23 134 76 13 47 -1 106 -32 128 -33 23 -54 18 -23 -6 23 -18
26 -27 26 -85 0 -77 -20 -104 -75 -104 l-36 0 3 102 c3 99 4 102 28 109 17 5
8 7 -30 7 -30 0 -49 -2 -42 -5z"/>
<path d="M4728 2673 c8 -3 12 -35 12 -108 0 -73 -4 -105 -12 -108 -7 -3 24 -6
70 -6 l82 -1 0 33 0 32 -13 -25 c-10 -20 -21 -26 -55 -28 l-42 -3 0 50 c0 45
3 51 20 51 12 0 24 -10 30 -22 7 -18 9 -13 9 27 0 40 -2 45 -9 28 -6 -14 -18
-23 -30 -23 -19 0 -21 5 -18 48 3 47 3 47 41 50 31 3 39 -1 46 -20 10 -23 10
-22 10 5 l1 27 -77 -1 c-43 0 -72 -3 -65 -6z"/>
<path d="M4910 2663 c6 -10 28 -63 49 -118 36 -91 40 -98 49 -75 5 14 7 27 3
30 -8 6 -61 142 -61 157 0 6 6 14 13 16 6 3 -5 6 -26 6 -33 1 -36 -1 -27 -16z"/>
<path d="M5049 2671 c7 -5 16 -13 20 -19 4 -7 11 -4 19 8 11 18 9 20 -20 20
-23 0 -29 -3 -19 -9z"/>
<path d="M5128 2668 c17 -17 17 -205 0 -211 -7 -3 24 -6 70 -6 l82 -1 0 33 0
32 -13 -25 c-10 -20 -21 -26 -55 -28 l-42 -3 0 50 c0 45 3 51 20 51 12 0 24
-10 30 -22 7 -18 9 -13 9 27 0 40 -2 45 -9 28 -6 -14 -18 -23 -30 -23 -19 0
-21 5 -18 48 l3 47 40 0 c33 0 40 -4 46 -25 6 -23 7 -22 8 8 l1 32 -77 0 c-60
0 -74 -3 -65 -12z"/>
<path d="M5318 2673 c8 -3 12 -35 12 -108 0 -73 -4 -105 -12 -108 -7 -3 24 -6
70 -6 l82 -1 -1 33 c-1 29 -2 30 -8 7 -6 -22 -12 -25 -51 -25 l-45 0 -3 95
c-2 80 0 97 15 107 14 11 11 13 -28 12 -24 0 -38 -3 -31 -6z"/>
<path d="M5538 2651 c-31 -27 -33 -34 -33 -91 0 -55 3 -64 28 -86 37 -32 57
-31 27 1 -31 33 -35 126 -7 168 21 32 65 36 91 8 35 -39 33 -144 -5 -182 -27
-27 -5 -24 28 5 25 22 28 30 28 91 0 61 -3 69 -28 91 -40 34 -88 32 -129 -5z"/>
<path d="M5748 2668 c17 -17 17 -205 0 -211 -7 -3 7 -5 32 -5 25 0 37 2 28 5
-13 3 -18 15 -18 42 0 37 1 39 40 45 73 12 93 91 30 123 -34 17 -129 18 -112
1z m110 -30 c18 -39 -2 -82 -41 -86 -27 -3 -27 -3 -27 58 0 61 0 61 27 58 19
-2 32 -12 41 -30z"/>
<path d="M5933 2669 c14 -8 17 -25 17 -104 0 -79 -3 -96 -17 -104 -13 -8 5
-10 70 -11 69 0 87 3 87 14 0 21 -17 29 -24 11 -3 -10 -19 -15 -46 -15 l-40 0
0 50 c0 43 3 50 19 50 11 0 22 -6 24 -12 3 -7 5 1 5 17 0 17 -2 24 -5 18 -2
-7 -13 -13 -24 -13 -16 0 -19 7 -19 51 l0 50 37 -3 c28 -2 41 -9 50 -28 l13
-25 0 33 0 32 -82 0 c-61 -1 -78 -3 -65 -11z"/>
<path d="M6128 2673 c8 -3 12 -35 12 -108 0 -73 -4 -105 -12 -108 -7 -3 5 -6
27 -6 24 0 35 3 27 7 -9 6 -12 35 -10 108 3 92 4 99 24 102 47 7 73 -63 34
-91 -11 -8 -17 -17 -12 -21 4 -4 14 -28 22 -54 12 -37 20 -48 39 -50 23 -4 23
-3 8 13 -10 9 -17 24 -17 33 0 10 -7 27 -15 39 -14 21 -14 24 5 43 34 34 25
71 -23 89 -27 11 -135 15 -109 4z"/>
<path d="M5056 2615 c-9 -26 -7 -32 5 -12 6 10 9 21 6 23 -2 3 -7 -2 -11 -11z"/>
</g>
</svg>
